<svg width="63" height="13" viewBox="0 0 63 13" fill="none" xmlns="http://www.w3.org/2000/svg">
<g clip-path="url(#clip0_2611_5240)">
<path d="M11.4998 6.5C11.4998 3.74 9.25976 1.5 6.49976 1.5C3.73976 1.5 1.49976 3.74 1.49976 6.5C1.49976 8.92 3.21976 10.935 5.49976 11.4V8H4.49976V6.5H5.49976V5.25C5.49976 4.285 6.28476 3.5 7.24976 3.5H8.49975V5H7.49975C7.22476 5 6.99976 5.225 6.99976 5.5V6.5H8.49975V8H6.99976V11.475C9.52475 11.225 11.4998 9.095 11.4998 6.5Z" fill="#3182CE"/>
</g>
<g clip-path="url(#clip1_2611_5240)">
<path d="M38.125 3.06662C37.703 3.24999 37.2565 3.37079 36.7996 3.42522C37.2798 3.14406 37.6409 2.69738 37.8152 2.16897C37.3612 2.43442 36.8654 2.62067 36.3489 2.71975C36.1314 2.49183 35.8699 2.31051 35.5801 2.18681C35.2904 2.06312 34.9785 1.99964 34.6635 2.00022C33.388 2.00022 32.3559 3.0174 32.3559 4.27131C32.355 4.44572 32.3749 4.61962 32.4154 4.78928C31.5008 4.7464 30.6052 4.51309 29.7859 4.10426C28.9667 3.69543 28.2418 3.1201 27.6576 2.41506C27.4526 2.76056 27.3442 3.15476 27.3437 3.55647C27.3437 4.34397 27.7546 5.04006 28.375 5.44787C28.0074 5.43915 27.6474 5.34186 27.3255 5.16428V5.1924C27.3255 6.29396 28.1223 7.21037 29.177 7.41896C28.9787 7.47183 28.7743 7.49862 28.5691 7.49865C28.4234 7.4989 28.2781 7.48477 28.1352 7.45646C28.4284 8.35881 29.2818 9.01506 30.2927 9.03381C29.4713 9.66683 28.4628 10.009 27.4258 10.0065C27.2417 10.0062 27.0578 9.99523 26.875 9.97365C27.93 10.6473 29.1563 11.0036 30.408 11.0002C34.6586 11.0002 36.9808 7.53849 36.9808 4.53615C36.9808 4.43772 36.9782 4.33928 36.9735 4.24318C37.4242 3.92257 37.8142 3.52415 38.125 3.06662Z" fill="#3182CE"/>
</g>
<path d="M59.3228 2.85404C59.8059 2.85548 60.2688 3.04802 60.6103 3.38959C60.9519 3.73117 61.1445 4.19403 61.1459 4.67709V8.32279C61.1445 8.80585 60.9519 9.26871 60.6103 9.61028C60.2688 9.95186 59.8059 10.1444 59.3228 10.1458H55.6771C55.1941 10.1444 54.7312 9.95186 54.3897 9.61028C54.0481 9.26871 53.8555 8.80585 53.8541 8.32279V4.67709C53.8555 4.19403 54.0481 3.73117 54.3897 3.38959C54.7312 3.04802 55.1941 2.85548 55.6771 2.85404H59.3228ZM59.3228 2.12494H55.6771C54.2734 2.12494 53.125 3.27338 53.125 4.67709V8.32279C53.125 9.7265 54.2734 10.8749 55.6771 10.8749H59.3228C60.7266 10.8749 61.875 9.7265 61.875 8.32279V4.67709C61.875 3.27338 60.7266 2.12494 59.3228 2.12494Z" fill="#3182CE"/>
<path d="M59.8696 4.677C59.7615 4.677 59.6557 4.64493 59.5658 4.58484C59.4759 4.52475 59.4058 4.43933 59.3644 4.33941C59.323 4.23948 59.3122 4.12952 59.3333 4.02344C59.3544 3.91735 59.4064 3.81991 59.4829 3.74343C59.5594 3.66695 59.6569 3.61486 59.7629 3.59376C59.869 3.57266 59.979 3.58349 60.0789 3.62488C60.1788 3.66627 60.2642 3.73637 60.3243 3.8263C60.3844 3.91623 60.4165 4.02197 60.4165 4.13013C60.4167 4.20199 60.4026 4.27317 60.3752 4.33959C60.3478 4.40601 60.3075 4.46636 60.2567 4.51717C60.2059 4.56798 60.1455 4.60826 60.0791 4.63569C60.0127 4.66312 59.9415 4.67716 59.8696 4.677Z" fill="#3182CE"/>
<path d="M57.5 5.0413C57.7884 5.0413 58.0704 5.12683 58.3102 5.28708C58.5501 5.44733 58.737 5.6751 58.8474 5.94159C58.9578 6.20808 58.9866 6.50131 58.9304 6.78421C58.8741 7.06711 58.7352 7.32698 58.5312 7.53094C58.3273 7.7349 58.0674 7.8738 57.7845 7.93007C57.5016 7.98634 57.2084 7.95746 56.9419 7.84708C56.6754 7.7367 56.4476 7.54977 56.2874 7.30994C56.1271 7.0701 56.0416 6.78814 56.0416 6.49969C56.042 6.11303 56.1958 5.74232 56.4692 5.46891C56.7426 5.19549 57.1133 5.04171 57.5 5.0413ZM57.5 4.31219C57.0674 4.31219 56.6444 4.44049 56.2847 4.68085C55.925 4.92122 55.6446 5.26286 55.479 5.66257C55.3134 6.06229 55.2701 6.50212 55.3545 6.92645C55.4389 7.35079 55.6473 7.74056 55.9532 8.04649C56.2591 8.35242 56.6489 8.56076 57.0732 8.64516C57.4976 8.72957 57.9374 8.68625 58.3371 8.52068C58.7368 8.35511 59.0785 8.07474 59.3188 7.715C59.5592 7.35527 59.6875 6.93234 59.6875 6.49969C59.6875 5.91953 59.457 5.36313 59.0468 4.9529C58.6366 4.54266 58.0802 4.31219 57.5 4.31219Z" fill="#3182CE"/>
<defs>
<clipPath id="clip0_2611_5240">
<rect width="12" height="12" fill="white" transform="translate(0.499756 0.5)"/>
</clipPath>
<clipPath id="clip1_2611_5240">
<rect width="12" height="12" fill="white" transform="translate(26.5 0.5)"/>
</clipPath>
</defs>
</svg>
